# This file uses centimeters as units for non-parametric coordinates.

v -0.250000 -0.250000 0.250000
v 0.250000 -0.250000 0.250000
v -0.250000 0.250000 0.250000
v 0.250000 0.250000 0.250000
v -0.250000 0.250000 -0.250000
v 0.250000 0.250000 -0.250000
v -0.250000 -0.250000 -0.250000
v 0.250000 -0.250000 -0.250000
v -0.250000 -0.250000 0.250000
v -0.250000 -0.250000 0.250000
v 0.250000 -0.250000 0.250000
v 0.250000 -0.250000 0.250000
v -0.250000 0.250000 0.250000
v -0.250000 0.250000 0.250000
v 0.250000 0.250000 0.250000
v 0.250000 0.250000 0.250000
v -0.250000 0.250000 -0.250000
v -0.250000 0.250000 -0.250000
v 0.250000 0.250000 -0.250000
v 0.250000 0.250000 -0.250000
v -0.250000 -0.250000 -0.250000
v -0.250000 -0.250000 -0.250000
v 0.250000 -0.250000 -0.250000
v 0.250000 -0.250000 -0.250000
vt 0.000000 0.000000
vt 1.000000 0.000000
vt 0.000000 0.000000
vt 0.000000 0.000000
vt 1.000000 0.000000
vt 1.000000 1.000000
vt 1.000000 1.000000
vt 0.000000 1.000000
vt 0.000000 1.000000
vt 1.000000 0.000000
vt 1.000000 0.000000
vt 1.000000 1.000000
vt 0.000000 1.000000
vt 0.000000 1.000000
vt 0.000000 1.000000
vt 0.000000 0.000000
vt 1.000000 1.000000
vt 1.000000 1.000000
vt 1.000000 0.000000
vt 0.000000 1.000000
vt 0.000000 0.000000
vt 1.000000 0.000000
vt 0.000000 0.000000
vt 1.000000 1.000000
vn 0.000000 0.000000 1.000000
vn 0.000000 0.000000 1.000000
vn 0.000000 0.000000 1.000000
vn 0.000000 0.000000 1.000000
vn 0.000000 1.000000 0.000000
vn 0.000000 1.000000 0.000000
vn 0.000000 1.000000 0.000000
vn 0.000000 1.000000 0.000000
vn 0.000000 0.000000 -1.000000
vn 0.000000 0.000000 -1.000000
vn 0.000000 0.000000 -1.000000
vn 0.000000 0.000000 -1.000000
vn 0.000000 -1.000000 0.000000
vn 0.000000 -1.000000 0.000000
vn 0.000000 -1.000000 0.000000
vn 0.000000 -1.000000 0.000000
vn 1.000000 0.000000 0.000000
vn 1.000000 0.000000 0.000000
vn 1.000000 0.000000 0.000000
vn 1.000000 0.000000 0.000000
vn -1.000000 0.000000 0.000000
vn -1.000000 0.000000 0.000000
vn -1.000000 0.000000 0.000000
vn -1.000000 0.000000 0.000000
f 10/4/1 12/10/2 14/14/3
f 12/10/2 16/12/4 14/14/3
f 13/3/5 4/5/6 18/9/7
f 4/5/6 20/6/8 18/9/7
f 17/15/9 6/17/10 22/23/11
f 6/17/10 24/22/12 22/23/11
f 21/13/13 8/18/14 9/21/15
f 8/18/14 2/19/16 9/21/15
f 11/1/17 23/2/18 15/8/19
f 23/2/18 19/7/20 15/8/19
f 7/11/21 1/16/22 5/24/23
f 1/16/22 3/20/24 5/24/23
